<?xml version="1.0" encoding="UTF-8"?>
<svg id="Camada_2" data-name="Camada 2" xmlns="http://www.w3.org/2000/svg" viewBox="0 0 370.69 189.03">
  <defs>
    <style>
      .cls-1 {
        fill: #d0d3da;
      }

      .cls-2 {
        fill: #39a03d;
      }
    </style>
  </defs>
  <g id="Camada_1-2" data-name="Camada 1">
    <path class="cls-2" d="M366.66,41.66l-56.85-7.31c-3.77-.49-6.6-3.7-6.6-7.5v-11.99c0-4.59-3.72-8.32-8.32-8.32H8.32C3.72,6.53,0,10.25,0,14.85v165.86c0,4.59,3.72,8.32,8.32,8.32h286.57c4.59,0,8.32-3.72,8.32-8.32v-17.85c0-3.75,2.74-6.93,6.45-7.48l57.09-8.53c2.27-.34,3.94-2.28,3.94-4.57V46.24c0-2.33-1.73-4.29-4.03-4.59Z"/>
    <path class="cls-1" d="M24.74,6.87c.01-1.47,1.58-2.13,3.12-1.73.61.16.06,0,.01-.05.27.26-.23-.56-.13-.16.03.12.15.21.18.33.15.61-.11-.44.1.25.11.35.22.7.32,1.06,1.03,3.91,1.22,7.62,1.45,11.81.37,6.63.05,13.26.03,19.9-.02,3.97-.07,7.95-.35,11.91-.06.93-.14,1.86-.24,2.78-.04.4-.09.8-.14,1.2-.1.77.08-.5-.04.26-.04.26-.08.52-.12.78-.23,1.4-.53,2.8-1.06,4.13.28-.72-.02.02-.12.2-.12.22-.67.89-.1.22-.21.24-.62.42.04.05-.63.36.56-.1-.06.04-.3.07.74-.1.33-.06-.37.04.64.22.13.02-.24-.1-.54-.14-.79-.22.7.23-.2-.15-.4-.26-.12-.07-.36-.29.11.1-.17-.14-.34-.29-.49-.45-.12-.13-.68-.83-.28-.29-.22-.3-.42-.61-.6-.93-.16-.28-.3-.58-.45-.87-.3-.61.18.49-.07-.16-.08-.2-.15-.4-.23-.6-.61-1.72-.98-3.53-1.25-5.33-.57-3.8-.65-8.88-.61-13.2.03-3.59.27-7.2.1-10.79-.15-3.2-5.15-3.22-5,0,.16,3.5-.07,7.02-.1,10.52-.05,4.68.04,9.38.68,14.02.51,3.76,1.38,7.84,3.93,10.78,2.11,2.44,6.21,3.86,8.62,1.06s2.61-6.9,2.96-10.23c.45-4.29.54-8.61.58-12.92.06-7.42.39-14.88-.05-22.28-.17-2.87-.44-5.73-.84-8.58-.3-2.1-.65-4.26-1.55-6.2C31.27.65,28.64-.24,26.16.05c-3.54.42-6.39,3.16-6.42,6.82-.02,3.22,4.98,3.22,5,0h0Z"/>
  </g>
</svg>