<?xml version="1.0" encoding="UTF-8"?>
<svg id="Camada_1" data-name="Camada 1" xmlns="http://www.w3.org/2000/svg" viewBox="0 0 1080 199">
  <defs>
    <style>
      .cls-1 {
        fill: #f6f6f6;
      }

      .cls-2 {
        fill: #d0d3da;
      }

      .cls-3 {
        fill: #39a03d;
      }

      .cls-4 {
        fill: #173db7;
      }
    </style>
  </defs>
  <rect class="cls-4" width="1080" height="199"/>
  <path class="cls-3" d="M366.66,43.38l-56.85-7.31c-3.77-.49-6.6-3.7-6.6-7.5v-11.99c0-4.59-3.72-8.32-8.32-8.32H8.32C3.72,8.25,0,11.98,0,16.57v165.86c0,4.59,3.72,8.32,8.32,8.32h286.57c4.59,0,8.32-3.72,8.32-8.32v-17.85c0-3.75,2.74-6.93,6.45-7.48l57.09-8.53c2.27-.34,3.94-2.28,3.94-4.57V47.96c0-2.33-1.73-4.29-4.03-4.59Z"/>
  <path class="cls-2" d="M24.74,8.59c.01-1.47,1.58-2.13,3.12-1.73.61.16.06,0,.01-.05.27.26-.23-.56-.13-.16.03.12.15.21.18.33.15.61-.11-.44.1.25.11.35.22.7.32,1.06,1.03,3.91,1.22,7.62,1.45,11.81.37,6.63.05,13.26.03,19.9-.02,3.97-.07,7.95-.35,11.91-.06.93-.14,1.86-.24,2.78-.04.4-.09.8-.14,1.2-.1.77.08-.5-.04.26-.04.26-.08.52-.12.78-.23,1.4-.53,2.8-1.06,4.13.28-.72-.02.02-.12.2-.12.22-.67.89-.1.22-.21.24-.62.42.04.05-.63.36.56-.1-.06.04-.3.07.74-.1.33-.06-.37.04.64.22.13.02-.24-.1-.54-.14-.79-.22.7.23-.2-.15-.4-.26-.12-.07-.36-.29.11.1-.17-.14-.34-.29-.49-.45-.12-.13-.68-.83-.28-.29-.22-.3-.42-.61-.6-.93-.16-.28-.3-.58-.45-.87-.3-.61.18.49-.07-.16-.08-.2-.15-.4-.23-.6-.61-1.72-.98-3.53-1.25-5.33-.57-3.8-.65-8.88-.61-13.2.03-3.59.27-7.2.1-10.79-.15-3.2-5.15-3.22-5,0,.16,3.5-.07,7.02-.1,10.52-.05,4.68.04,9.38.68,14.02.51,3.76,1.38,7.84,3.93,10.78,2.11,2.44,6.21,3.86,8.62,1.06s2.61-6.9,2.96-10.23c.45-4.29.54-8.61.58-12.92.06-7.42.39-14.88-.05-22.28-.17-2.87-.44-5.73-.84-8.58-.3-2.1-.65-4.26-1.55-6.2-1.09-2.34-3.72-3.23-6.2-2.94-3.54.42-6.39,3.16-6.42,6.82-.02,3.22,4.98,3.22,5,0h0Z"/>
  <g>
    <path class="cls-1" d="M1032.94,90.43h-45.05c-10.39,0-18.85,8.46-18.85,18.85v45.05c0,10.39,8.46,18.85,18.85,18.85h45.05c10.39,0,18.85-8.46,18.85-18.85v-45.05c0-10.39-8.46-18.85-18.85-18.85ZM1047.54,154.33c0,8.05-6.55,14.59-14.59,14.59h-45.05c-8.05,0-14.59-6.55-14.59-14.59v-45.05c0-8.05,6.55-14.59,14.59-14.59h45.05c8.05,0,14.59,6.55,14.59,14.59v45.05Z"/>
    <g>
      <g>
        <path class="cls-1" d="M991.04,160.97c.19-.1.34-.25.45-.43.1-.19.16-.41.16-.65,0-.39-.12-.7-.37-.92-.25-.22-.6-.33-1.05-.33h-1.43c-.06,0-.08.03-.08.08v3.48c0,.06.03.08.08.08h.67c.06,0,.09-.03.09-.08v-1.04h.2c.28,0,.5.08.65.23.15.16.27.42.34.81.01.05.04.08.09.08h.75c.06,0,.09-.03.08-.09-.09-.57-.3-.97-.64-1.21ZM990.21,160.36h-.65v-.96h.65c.38,0,.58.16.58.48s-.19.48-.58.48Z"/>
        <path class="cls-1" d="M984.17,158.63h-1.41c-.06,0-.08.03-.08.08v3.48c0,.06.03.08.08.08h.67c.06,0,.09-.03.09-.08v-.99h.65c.45,0,.8-.11,1.05-.34.25-.23.37-.54.37-.95s-.12-.72-.37-.94c-.25-.22-.6-.34-1.05-.34ZM984.14,160.41h-.63v-1.01h.63c.38,0,.57.17.57.5s-.19.5-.57.5Z"/>
        <path class="cls-1" d="M997.44,161.49h-1.68v-.67h1.3c.06,0,.08-.03.08-.09v-.58c0-.06-.03-.09-.08-.09h-1.3v-.67h1.66c.06,0,.08-.03.08-.09v-.6c0-.06-.03-.08-.08-.08h-2.42c-.06,0-.08.03-.08.08v3.48c0,.06.03.08.08.08h2.44c.06,0,.08-.03.08-.08v-.6c0-.06-.03-.09-.08-.09Z"/>
        <path class="cls-1" d="M1008.97,161.49h-1.68v-.67h1.3c.06,0,.08-.03.08-.09v-.58c0-.06-.03-.09-.08-.09h-1.3v-.67h1.66c.06,0,.08-.03.08-.09v-.6c0-.06-.03-.08-.08-.08h-2.42c-.06,0-.08.03-.08.08v3.48c0,.06.03.08.08.08h2.44c.06,0,.08-.03.08-.08v-.6c0-.06-.03-.09-.08-.09Z"/>
        <path class="cls-1" d="M1003.22,158.63h-2.4c-.06,0-.08.03-.08.08v3.48c0,.06.03.08.08.08h.67c.06,0,.09-.03.09-.08v-1.24h1.42c.06,0,.08-.03.08-.09v-.61c0-.06-.03-.08-.08-.08h-1.42v-.76h1.64c.06,0,.08-.03.08-.08v-.61c0-.06-.03-.08-.08-.08Z"/>
        <path class="cls-1" d="M1013.01,158.63h-.67c-.06,0-.08.03-.08.08v3.48c0,.06.03.08.08.08h.67c.06,0,.09-.03.09-.08v-3.48c0-.06-.03-.08-.09-.08Z"/>
        <path class="cls-1" d="M1018.98,158.63h-2.72c-.06,0-.09.03-.09.08v.61c0,.06.03.08.09.08h.94v2.78c0,.06.03.08.08.08h.67c.06,0,.08-.03.08-.08v-2.78h.94c.06,0,.08-.03.08-.08v-.61c0-.06-.03-.08-.08-.08Z"/>
        <path class="cls-1" d="M1030.81,160.97c.19-.1.34-.25.45-.43.1-.19.16-.41.16-.65,0-.39-.12-.7-.37-.92-.25-.22-.6-.33-1.05-.33h-1.43c-.06,0-.08.03-.08.08v3.48c0,.06.03.08.08.08h.67c.06,0,.09-.03.09-.08v-1.04h.2c.28,0,.5.08.65.23.15.16.27.42.34.81.01.05.04.08.09.08h.75c.06,0,.09-.03.08-.09-.09-.57-.3-.97-.64-1.21ZM1029.97,160.36h-.65v-.96h.65c.38,0,.58.16.58.48s-.19.48-.58.48Z"/>
        <path class="cls-1" d="M1036.74,158.69s-.05-.07-.1-.07h-.78c-.05,0-.09.02-.1.07l-1.36,3.47c-.03.07,0,.1.07.1h.7c.05,0,.09-.02.1-.07l.21-.57h1.56l.21.57s.04.07.09.07h.71c.07,0,.09-.03.07-.1l-1.36-3.47ZM1035.74,160.89l.49-1.34h.02l.49,1.34h-1Z"/>
        <path class="cls-1" d="M1025.07,158.63h-.67c-.06,0-.08.03-.08.08v2.02c0,.27-.06.48-.17.6-.11.13-.29.19-.51.19s-.4-.06-.51-.19c-.11-.13-.17-.33-.17-.6v-2.02c0-.06-.03-.08-.09-.08h-.67c-.06,0-.08.03-.08.08v2.08c0,.49.13.87.4,1.14.27.27.64.4,1.13.4s.86-.13,1.13-.4c.27-.27.4-.65.4-1.14v-2.08c0-.06-.03-.08-.09-.08Z"/>
      </g>
      <g>
        <path class="cls-1" d="M992.37,152.84c-.2-.02-.38-.06-.52-.11-.21-.08-.41-.25-.58-.5l-.1-.16c.68-.52,1.23-1.16,1.63-1.92.46-.87.7-1.82.7-2.81,0-1.65-.6-3.08-1.78-4.25-1.18-1.17-2.68-1.77-4.46-1.77h-3.65c-.57,0-1.02.46-1.02,1.02v13.03c0,.57.46,1.02,1.02,1.02h1.57c.57,0,1.02-.46,1.02-1.02v-1.99h1.16c.13,0,.29,0,.49-.02l.59.93c.53.82,1.11,1.38,1.72,1.68.49.23,1.16.37,2.04.42.59.03,1.07-.43,1.07-1.02v-1.47c0-.5-.41-.98-.9-1.03ZM989.15,149.06c-.5.47-1.1.69-1.82.69h-1.14v-4.83h1.14c.72,0,1.31.23,1.81.7.49.46.73,1.03.73,1.73s-.24,1.26-.73,1.71Z"/>
        <path class="cls-1" d="M1027.39,141.3h-6.47c-.56,0-1.02.46-1.02,1.02v13.03c0,.57.46,1.02,1.02,1.02h1.57c.57,0,1.02-.46,1.02-1.02v-4.72h3.62c.57,0,1.02-.46,1.02-1.02v-1.37c0-.57-.46-1.02-1.02-1.02h-3.62v-2.41h3.88c.56,0,1.02-.46,1.02-1.02v-1.47c0-.57-.46-1.02-1.02-1.02Z"/>
        <path class="cls-1" d="M1036.98,144.81c.56,0,1.02-.46,1.02-1.02v-1.47c0-.57-.46-1.02-1.02-1.02h-6.47c-.57,0-1.02.46-1.02,1.02v13.03c0,.57.46,1.02,1.02,1.02h6.47c.56,0,1.02-.46,1.02-1.02v-1.47c0-.57-.46-1.02-1.02-1.02h-3.88v-2.23h3.62c.56,0,1.02-.46,1.02-1.02v-1.37c0-.57-.46-1.02-1.02-1.02h-3.62v-2.41h3.88Z"/>
        <rect class="cls-1" x="1014.54" y="141.3" width="3.61" height="15.08" rx="1.02" ry="1.02"/>
        <path class="cls-1" d="M1012.29,152.86h-1.01c-1.29,0-2.28-.37-3.03-1.15-.76-.77-1.12-1.73-1.12-2.91s.37-2.09,1.12-2.86c.75-.77,1.74-1.14,3.01-1.14h1.01c.56,0,1.02-.46,1.02-1.02v-1.47c0-.57-.46-1.02-1.02-1.02h-1.11c-2.24,0-4.1.72-5.52,2.15-1.43,1.43-2.15,3.23-2.15,5.36s.73,4,2.17,5.42c1.44,1.42,3.33,2.15,5.62,2.15h1.01c.57,0,1.02-.46,1.02-1.02v-1.47c0-.57-.46-1.02-1.02-1.02Z"/>
        <path class="cls-1" d="M1002.08,141.3h-6.47c-.57,0-1.02.46-1.02,1.02v13.03c0,.56.46,1.02,1.02,1.02h6.47c.56,0,1.02-.46,1.02-1.02v-1.47c0-.57-.46-1.02-1.02-1.02h-3.88v-2.23h3.62c.57,0,1.02-.46,1.02-1.02v-1.37c0-.57-.46-1.02-1.02-1.02h-3.62v-2.41h3.88c.56,0,1.02-.46,1.02-1.02v-1.47c0-.57-.46-1.02-1.02-1.02Z"/>
      </g>
      <g>
        <path class="cls-1" d="M1018.08,106.9s.02,0,.02.01l.23-.52s-.02,0-.02-.01c-.1-.04-.19-.09-.29-.13-2.34-1-4.92-1.55-7.63-1.55s-5.29.55-7.63,1.56c-.1.04-.19.09-.29.13,0,0-.02,0-.03.01l.23.52s.02,0,.03-.01c.1-.04.19-.09.28-.13,2.28-.97,4.78-1.51,7.41-1.51s5.13.54,7.4,1.51c.09.04.19.09.28.13Z"/>
        <path class="cls-1" d="M1014.7,100.46c-.21-.04-.42-.07-.63-.1l-.05.35c-.2-.03-.41-.05-.61-.08l.05-.35c-.22-.03-.43-.05-.65-.08l-.03.35c-.2-.02-.41-.03-.62-.05l.03-.36c-.2-.01-.39-.03-.59-.04l-.05.86c1.02.05,2.02.17,3,.35l.15-.84Z"/>
        <path class="cls-1" d="M1009.23,100.96l-.05-.86c-.2.01-.41.03-.61.04l.03.36c-.21.02-.41.03-.62.05l-.03-.35c-.22.02-.44.05-.65.08l.05.35c-.2.03-.41.05-.61.08l-.05-.34c-.21.03-.41.07-.61.1l.15.84c.98-.18,1.98-.3,3.01-.35Z"/>
        <path class="cls-1" d="M1000.92,102.95c.12-.05.23-.11.35-.16.06-.03.12-.05.18-.07.82-.34,1.66-.63,2.52-.88l-.24-.82c-.23.06-.45.13-.67.2l.11.33c-.2.06-.39.13-.59.2l-.11-.33c-.24.08-.47.17-.71.26l.13.33c-.15.06-.3.12-.44.18-.04.02-.09.03-.13.05l-.13-.33c-.08.03-.17.07-.25.1-.12.05-.24.11-.36.16-.01,0-.02.01-.04.02l.35.78s.02-.01.03-.02Z"/>
        <path class="cls-1" d="M1019.52,102.79c.12.05.23.11.34.16,0,0,.02,0,.03.01l.35-.78s-.02,0-.03-.01c-.12-.05-.24-.11-.36-.16-.09-.04-.18-.07-.27-.11l-.13.33c-.06-.02-.12-.05-.18-.07-.13-.05-.26-.11-.4-.16l.13-.33c-.23-.09-.46-.17-.69-.25l-.11.34c-.19-.07-.39-.14-.58-.2l.11-.33c-.22-.07-.45-.14-.68-.2l-.24.82c.84.24,1.66.52,2.46.85.08.03.17.07.25.1Z"/>
        <path class="cls-1" d="M1017.98,136.79c-.33,0-.58.16-.78.28-.17.11-.31.19-.47.19s-.3-.09-.47-.19c-.2-.13-.44-.28-.78-.28s-.58.16-.78.28c-.17.11-.31.19-.47.19s-.3-.09-.47-.19c-.2-.13-.44-.28-.78-.28s-.58.16-.78.28c-.17.11-.31.19-.47.19s-.3-.09-.47-.19c-.2-.13-.44-.28-.78-.28s-.58.16-.78.28c-.17.11-.31.19-.47.19s-.3-.09-.47-.19c-.2-.13-.44-.28-.78-.28s-.58.16-.78.28c-.17.11-.31.19-.47.19s-.3-.09-.47-.19c-.2-.13-.44-.28-.78-.28s-.58.16-.78.28c-.17.11-.31.19-.47.19s-.3-.09-.47-.19c-.2-.13-.44-.28-.78-.28s-.58.16-.78.28c-.16.1-.29.18-.45.19.16.15.34.25.53.33.07-.04.13-.08.19-.11.17-.11.32-.2.51-.2s.33.09.51.2c.19.12.4.25.68.27h.13c.28-.02.49-.15.68-.27.17-.11.32-.2.51-.2s.34.09.51.2c.19.12.4.25.68.27h.13c.28-.02.49-.15.68-.27.17-.11.32-.2.51-.2s.34.09.51.2c.19.12.4.25.68.27h.13c.28-.02.49-.15.68-.27.17-.11.32-.2.51-.2s.34.09.51.2c.19.12.4.25.68.27h.13c.28-.02.49-.15.68-.27.17-.11.32-.2.51-.2s.34.09.51.2c.19.12.4.25.68.27h.13c.28-.02.49-.15.68-.27.17-.11.32-.2.51-.2s.34.09.51.2c.19.12.4.25.68.27h.13c.28-.02.49-.15.68-.27.17-.11.32-.2.51-.2s.34.09.51.2c.03.02.07.04.1.06.16-.08.32-.18.45-.31-.09-.03-.18-.09-.29-.16-.2-.13-.44-.28-.78-.28Z"/>
        <path class="cls-1" d="M1018.76,134.43c-.2-.13-.44-.28-.78-.28s-.58.16-.78.28c-.17.11-.31.19-.47.19s-.3-.09-.47-.19c-.2-.13-.44-.28-.78-.28s-.58.16-.78.28c-.17.11-.31.19-.47.19s-.3-.09-.47-.19c-.2-.13-.44-.28-.78-.28s-.58.16-.78.28c-.17.11-.31.19-.47.19s-.3-.09-.47-.19c-.2-.13-.44-.28-.78-.28s-.58.16-.78.28c-.17.11-.31.19-.47.19s-.3-.09-.47-.19c-.2-.13-.44-.28-.78-.28s-.58.16-.78.28c-.17.11-.31.19-.47.19s-.3-.09-.47-.19c-.2-.12-.44-.28-.78-.28s-.58.16-.78.28c-.17.11-.31.19-.47.19s-.3-.09-.47-.19c-.2-.13-.44-.28-.78-.28s-.58.16-.78.28c-.17.11-.31.19-.47.19-.11,0-.2-.04-.29-.09v.53c.09.03.19.05.29.05.31,0,.54-.14.74-.27.17-.11.32-.2.51-.2s.33.09.51.2c.2.13.43.27.74.27s.54-.14.74-.27c.17-.11.32-.2.51-.2s.34.09.51.2c.2.13.43.27.74.27s.54-.14.74-.27c.17-.11.32-.2.51-.2s.34.09.51.2c.2.13.43.27.74.27s.54-.14.74-.27c.17-.11.32-.2.51-.2s.33.09.51.2c.2.13.43.27.74.27s.54-.14.74-.27c.17-.11.32-.2.51-.2s.33.09.51.2c.2.13.43.27.74.27s.54-.14.74-.27c.17-.11.32-.2.51-.2s.33.09.51.2c.2.13.43.27.74.27s.54-.14.74-.27c.17-.11.32-.2.51-.2s.33.09.51.2c.2.13.43.27.74.27.01,0,.03,0,.04,0v-.48s-.03,0-.04,0c-.17,0-.3-.09-.47-.19Z"/>
        <path class="cls-1" d="M1018.76,135.79c-.2-.13-.44-.28-.78-.28s-.58.16-.78.28c-.17.11-.31.19-.47.19s-.3-.09-.47-.19c-.2-.13-.44-.28-.78-.28s-.58.16-.78.28c-.17.11-.31.19-.47.19s-.3-.09-.47-.19c-.2-.13-.44-.28-.78-.28s-.58.16-.78.28c-.17.11-.31.19-.47.19s-.3-.09-.47-.19c-.2-.13-.44-.28-.78-.28s-.58.16-.78.28c-.17.11-.31.19-.47.19s-.3-.09-.47-.19c-.2-.13-.44-.28-.78-.28s-.58.16-.78.28c-.17.11-.31.19-.47.19s-.3-.09-.47-.19c-.2-.12-.44-.28-.78-.28s-.58.16-.78.28c-.17.11-.31.19-.47.19s-.3-.09-.47-.19c-.2-.13-.44-.28-.78-.28s-.58.16-.78.28c-.17.11-.31.19-.47.19-.11,0-.2-.04-.29-.09v.53c.09.03.19.05.29.05.31,0,.54-.14.74-.27.17-.11.32-.2.51-.2s.33.09.51.2c.2.13.43.27.74.27s.54-.14.74-.27c.17-.11.32-.2.51-.2s.34.09.51.2c.2.13.43.27.74.27s.54-.14.74-.27c.17-.11.32-.2.51-.2s.34.09.51.2c.2.13.43.27.74.27s.54-.14.74-.27c.17-.11.32-.2.51-.2s.33.09.51.2c.2.13.43.27.74.27s.54-.14.74-.27c.17-.11.32-.2.51-.2s.33.09.51.2c.2.13.43.27.74.27s.54-.14.74-.27c.17-.11.32-.2.51-.2s.33.09.51.2c.2.13.43.27.74.27s.54-.14.74-.27c.17-.11.32-.2.51-.2s.33.09.51.2c.2.13.43.27.74.27.01,0,.03,0,.04,0v-.49s-.03,0-.04,0c-.17,0-.3-.09-.47-.19Z"/>
        <path class="cls-1" d="M998.51,116.87c.36.86.55,1.52.55,1.52-.84-1.07-1.66-1.29-2.04-1.73-.08.74.05,1.26.05,1.26,0,0-.89-.49-1.37-1.64-.04.78.33,2.06,2.26,2.52-.49-.65-.5-1.19-.5-1.19,0,0,1.02.63,2.15,2.05.07-1.35-.16-2.12-1.09-2.81Z"/>
        <path class="cls-1" d="M993.11,113.68c.7.33,1.11.44,1.68,1.01.51.53,1.24.67,1.79.15.55-.51.71-.67.71-.67,0,0,.49.02.95-.19.2.37-.07,1.67-1.38,1.38-.23-.05-.36-.13-.53-.26-.08.11.12.33.25.41.91.56,2.53.04,2.12-1.99.47-.33.15-.92.1-1.43-.08-.85.16-.79.15-1.24,0-.47-.11-.77-.59-1.26-.13-.13-.25-.24-.36-.33-.3-.24-.48-.1-.17.16.16.13.31.29.4.45.27.49.12,1.2.03,1.64-.09.44.02.81.16,1.09.14.28.28.49,0,.8-.29.31-1.02.26-1.02.26,0,0-.2-.29-.07-.66.14-.35.42-.44.41-.64-.01-.2-.31-.42-.55-.66-.24-.24-.46-.75-.34-.99.11-.24.28-.43.57-.53.28-.09.36-.24.24-.45-.12-.21-.45-.19-.67.02-.21.21-.55.68-.44,1.23.12.56.32.95.52,1.2.2.24.08.41-.37.51-.45.11-.59.22-.64.15-.05-.06-.19-.45-.26-.89-.08-.44-.75-.89-1.29-.88-.55,0-.88.13-.76.52.31.5.93-.09.93-.09,0,0,.53.27.72.7.18.43.12,1.02.38,1.09.26.07.86-.27,1.02-.07.17.2.22.51.22.51,0,0-.85,1.25-1.7.76-.35-.2-.82-.66-1.35-1-.53-.33-1.02-.44-.94-1.34.07-.87.1-.9.19-1.57.08-.57.03-1.14.78-1.24.75-.09,1.5.04,1.62-.02.12-.05.03-1.3.99-1.02.05.01.08-.05.04-.08-.89-.61-1.29.45-1.33.47-.04.01-1.42-.09-1.86.15-.44.24-.56.49-.87,1.96-.29,1.39-.16,2.51.54,2.83Z"/>
        <path class="cls-1" d="M1001.45,121.53c1.96-3.01,5.3-4.85,8.91-4.85s6.95,1.84,8.91,4.85v-6.72h-17.82v6.72ZM1009.72,115.61h.47l.14-.43h0s.03-.08.03-.08l.13.4h0s.04.11.04.11h.55l-.12.09-.16.12h0s-.15.11-.15.11h0s0,0,0,0v.03s0,0,0,0l.15.47h0s0,.02,0,.02h0s-.15-.12-.15-.12h0s-.15-.11-.15-.11h0l-.13-.09-.03.02h0s-.15.11-.15.11h0s-.15.11-.15.11h0s-.11.08-.11.08l.11-.34h0s.06-.19.06-.19l-.06-.04h0s-.15-.11-.15-.11h0s-.15-.11-.15-.11l-.07-.05h.07Z"/>
        <path class="cls-1" d="M1010.36,118.75c-2.42,0-4.73,1.1-6.28,2.96h12.55c-1.55-1.86-3.86-2.96-6.27-2.96ZM1011.15,120.36h0s.11.18.11.18l.07.1h-.37l.07.19h0s.04.11.04.11l-.04-.02-.12-.05h0s-.11-.05-.11-.05h0s-.02.44-.02.44l-.09-.1-.11-.12-.1-.11-.02.05h0s-.1.28-.1.28l-.02-.04-.11-.2v-.02s-.11.1-.11.1l-.12.11h0s-.08.08-.08.08l-.02-.42h0s-.12.04-.12.04l-.11.04-.1.03.1-.22.06-.13h-.42l.02-.02.11-.11.12-.12h0s.05-.05.05-.05l-.05-.02h0s-.12-.06-.12-.06l-.11-.05h-.02s.02-.02.02-.02l.11-.06.12-.06h0s.03-.02.03-.02l-.03-.04h0s-.12-.15-.12-.15l-.11-.14h.42l-.08-.16-.08-.16.08.03.11.05.12.05h.03s-.02-.4-.02-.4l.1.09h0s.12.1.12.1l.08.07.03-.06.11-.2h0s.12.25.12.25h0s.02.03.02.03l.1-.09.11-.09.06-.05.03.35h.03s.11-.04.11-.04l.12-.03.09-.02-.09.21h0s-.05.11-.05.11h.37l-.09.1-.11.11h0s-.07.07-.07.07l.07.04h0s.11.06.11.06l.12.06-.12.04-.11.04h0s-.05.02-.05.02l.05.07Z"/>
        <path class="cls-1" d="M1010.36,117.96c-3.12,0-5.88,1.58-7.53,3.98h.39c1.61-2.21,4.21-3.65,7.14-3.65s5.53,1.44,7.14,3.65h.39c-1.66-2.4-4.41-3.98-7.53-3.98Z"/>
        <path class="cls-1" d="M1010.36,117.17c-3.58,0-6.72,1.91-8.47,4.76h.38c1.72-2.67,4.7-4.44,8.09-4.44s6.38,1.77,8.09,4.44h.38c-1.75-2.85-4.89-4.76-8.47-4.76Z"/>
        <polygon class="cls-1" points="1010.7 122.52 1010.21 122.52 1010.21 123.33 1009.39 123.33 1009.39 123.81 1010.21 123.81 1010.21 126.02 1010.7 126.02 1010.7 123.81 1011.52 123.81 1011.52 123.33 1010.7 123.33 1010.7 122.52"/>
        <path class="cls-1" d="M1033.55,114.3c.11-.05.23-.07.35-.07.15.02.35.08.54.27.26.25.57.96.71,1.6.12.57.76,2.28,3.38,1.04-2.76.34-1.7-3.23-4.39-3.35-.25,0-.48.04-.7.09-.38.08-.65-.15.12-.38.8-.23,1.87.11,2.35.62.62.66,1.01,2.62,2.26,2.53-1.22-1.21-1.06-2.19-2.01-3.07-.6-.55-1.83-.87-2.69-.56-1.21.44-1.42,1.8-1.42,2.53,0,1.93,1.36,3.21,2.68,4.45,1.21,1.14,2.35,2.22,2.34,3.71,0,.68-.33,1.1-.96,1.27-.4-1.1-1.43-1.73-2.78-2.56-.14-.09-.29-.18-.44-.27-.85-.52-1.45-1.15-1.88-1.7-.1-.13-.2-.28-.27-.43-.5-.96-1.03-2.31-2.11-3.27-.58-.51-1.47-1.23-1.36-2.06.05-.34.12-.68.41-1.03.3-.37.82-.82,1.02-1.35.19-.51.35-.85.4-1.88.33-.22.99-.12,1.08-.76.12-.88-1.05-1.13-1.52-1.21l.17-.33c.37-.5.91-.26,1.29-.92.55-.96-.41-1.58-1.02-1.62-.29-.28-.72-.49-.99-.6.16-.07.28-.23.3-.44.02-.2-.08-.38-.25-.48-.29-.17-.66-.03-.76.27-.05.14-.04.28.02.4-.28-.08-.75-.19-1.15-.15-.46-.17-1.63-.47-1.81.62-.12.76.45.91.43,1.53l-.15.77c-.21-.1-.48-.33-.65-.49-.23-.21-.38-.28-.73.27-.35.56-.23,1.14-.23,1.14-.2.19-.62.57-.72,1.2-.32.37-.48.83-.49,1.21,0,.43.15.52.08,1.33-.04.49-.12,1.06.13,1.44-.14,1.37,1.03,1.68,1.03,1.68,0,0-.32.45-.69,1.26-.7.14-1.72.04-2.13-.07v-2.65h0s-.19,0-.19,0h-1.14c.09-.1.15-.22.15-.35,0,0,0-.21,0-.21v-.42c0-.71-.58-1.29-1.28-1.29h-.81c-.71,0-1.28.58-1.28,1.29,0,0,0,.42,0,.42v.21c0,.13.05.25.15.35h-11.04c.09-.1.15-.22.15-.35,0,0,0-.21,0-.21v-.42c0-.71-.58-1.29-1.28-1.29h-.81c-.71,0-1.28.58-1.28,1.29,0,0,0,.42,0,.42v.21c0,.13.05.25.15.35h-.52c.14-1.15-.53-3.47-2.06-4.6l-.36-.35c-.05-.07-.06-.15-.03-.23.05-.16.12-.47.02-.96-.15-.71-.34-.69-.65-.57-.31.13-.71.22-.97.12-.27-.1-.41-.13-.58-.14-.22-.02-.44,0-.67.02l-.05-.36c-.03-.62.63-.79.5-1.55-.18-1.09-1.38-.86-1.89-.6-.4-.04-.87.07-1.15.15.06-.12.07-.27.02-.4-.11-.3-.47-.45-.76-.27-.17.1-.27.29-.25.48.02.21.14.36.3.44-.27.11-.7.32-.99.6-.49-.03-1.6.72-1.05,1.68.38.67.95.37,1.32.86l.31.61c-.34.24-.59.45-.72.59-.42.11-1.49.31-1.4,1.35.07.79.59.83.84.81-.49,1.15.03,2.62-.53,3.72-.61,1.2-.77,2.69-.4,4.34-.23.53-.87,1.75-2.16,2.62-.28.19-.56.37-.82.54-1.11.72-2.06,1.21-2.43,2.2-.64-.17-.91-.63-.91-1.31-.01-1.49,1-2.29,2.21-3.43,1.32-1.24,2.94-2.79,2.94-4.72,0-.74-.29-2.06-1.52-2.46-.88-.29-1.99-.22-2.96.62-1.24,1.44-.54,2.33-1.8,3.05,1.31.3,1.44-1.42,2.07-2.31.02-.03.05-.07.07-.1,0-.01.02-.02.02-.03.02-.03.04-.05.07-.07,0,0,.01-.02.02-.02.51-.5,1.56-.85,2.35-.62.77.22.47.54.12.38-.21-.1-.45-.12-.7-.09-2.7.41-1.53,3.68-4.39,3.35,2.62,1.25,3.26-.46,3.38-1.04.14-.64.42-1.47.68-1.72.19-.19.39-.25.54-.27.13,0,.25.03.35.07.38.17.58.63.58,1.31,0,1.24-1.2,2.36-2.46,3.55-1.46,1.37-2.97,2.78-2.97,4.62,0,.86.39,1.61,1.13,2.17.41.31.82.48,1.01.55,0,.51.06.98.11,1.4.07.56.13,1.05.02,1.43-.12.42-.71.96-1.19,1.39-.28.25-.51.47-.63.64-.25.36-.09.9.04,1.72.05.32.1,1.63.1,1.94,0,.72,0,1.56.21,1.98.29.57,1.21,1.21,1.95,1.47,1.13.41,2.07.27,2.23.23,0,0,0,0,0,0h0c.63-.09,1.14-.48,1.24-.74.17-.41.13-1.02-.26-1.27-.49-.31-2.69-.59-2.96-1.51-.2-.65-.04-1.64.03-1.99.02-.09.07-.17.14-.23.2-.16.72-.52,1.94-1.14,1.13-.58,1.86-1.5,2.29-2.57.3.12.89.38,1.45.79.78.56,1.13,1.39,1.15,2.01.02.63-.19,1.05.02,1.79.21.74,1.05.96,1.62,1.59.48.53,1.59,1.91,1.8,2.07.15.12,2.41.48,3.54.3.47-.07.16-.8-.24-1.36-.85-1.19-2.73-1.79-3.74-3.02-1-1.24-.04-2.5-.04-4.01s-1.14-2.31-1.14-2.31c0,0,.23-.02,1.81-.57.93-.32,1.42-.66,1.67-.89.4.25.84.63,1.1,1.17.42.73.27,1.34.52,2.35.14.58.58,1.05,1.16,1.3.01,0,.02,0,.04.01,0,0,0,1.93,0,1.93v3.61c0,.27.02.51.05.73.09.61.3,1.05.57,1.36.1.12.22.22.34.3.01,0,.03.02.04.02.54.35,1.19.41,1.72.41h14.43c.51,0,1.14-.06,1.67-.37.05-.03.09-.05.14-.09.08-.06.16-.13.23-.2.3-.31.54-.76.64-1.41.04-.23.06-.47.06-.75v-3.61h0v-1.94s.03-.01.04-.02c.58-.25,1.01-.72,1.16-1.3.25-1.01,0-2.96,1.75-4.35,1.3,1.09,2.52,1.22,3.54,2.07,0,0-1.32,1.02-1.32,2.53s.96,2.77-.04,4.01c-1.01,1.24-2.97,1.78-3.74,3.02-.36.58-.71,1.29-.24,1.36,1.13.18,3.39-.18,3.54-.3.21-.17.33-.32.42-.44.09-.11.91-1.11,1.38-1.64.57-.63,1.41-.86,1.62-1.59.21-.74,0-1.15.02-1.79.02-.63.38-1.45,1.15-2.01.55-.4,1.15-.67,1.45-.79.43,1.07,1.16,2,2.29,2.57,1.73.88,1.95,1.09,1.95,1.09,0,0,.38,1.53,0,2.42-.37.88-2.42.94-2.81,1.36-.26.28-.42.86-.26,1.27.09.26.35.5,1.08.7.02,0,.04,0,.06.02.03.01.07.02.1.03,0,0,0,0,0,0,0,0,0,0,0,0,.09.02.17.05.26.06,0,0,0,0,.01,0,0,0,0-.01,0-.01h0c.06.02.12.03.18.04,0,0,0,0,0,0h0c.06.01.13.02.19.02.27.02.48,0,.69-.05.01,0,.02,0,.03,0,.07-.01.15-.03.22-.05,0,0,0-.01,0-.01,0,0,0,.01,0,.01.06-.02.11-.04.17-.06.03-.01.06-.02.09-.03,0,0,0,0,0,0,0,0,0,0,0,0,.02,0,.04-.02.06-.03.03,0,.06-.02.09-.03.08-.03.16-.06.23-.09.74-.26,1.65-.99,1.94-1.56.21-.42.21-1.17.21-1.89,0-.31,0-.6.02-.85.02-.24.07-.55.12-.87.13-.82.26-1.59,0-1.95-.12-.17-.36-.38-.63-.64-.47-.43-1.06-.97-1.19-1.39-.11-.39-.05-.87.02-1.43.05-.43.11-.89.11-1.4.19-.07.6-.24,1.01-.55.74-.56,1.03-1.21,1.03-2.07,0-1.84-1.51-3.25-2.97-4.62-1.27-1.19-2.46-2.31-2.46-3.55,0-.69.26-1.11.65-1.29ZM1029.39,106.2c0-.07,0-.14-.02-.21.23.17.52.5.37.95-.12.35-.36.46-.62.61-.2.08-.39.14-.54.14-.06-.06-.31-.25-.35-.27.37-.46,1.12-.44,1.16-1.22ZM1027.8,105.99c.08-.26.08-.6.07-.83.21.13.36.25.6.46.51.43.32.66,0,.98-.24.23-.59.45-.66.58-.21-.08-.26-.12-.52-.22.2-.28.44-.69.52-.97ZM1026.72,104.99c.31,0,.5,0,.75.02-.16.17-.36.44-.45.69-.14.39-.17.77-.18,1.07-.26-.06-.36-.07-.59-.12.02-.2-.1-.61-.13-.9-.05-.45-.06-.76.61-.77ZM1024.91,105.25c.17-.45.6-.52.89-.51-.06.04-.11.09-.15.14-.44.6.12,1.17.16,1.74-.11-.02-.19-.02-.35-.03-.12-.09-.68-1-.55-1.34ZM1022.52,113.45c-.27-.3-.14-.63,0-.89.13-.27.23-.62.15-1.03-.08-.41-.22-1.08.03-1.55.24-.47,1.01-.83,1.01-.83,0,0,0-.08-.16-.06-.16.01-.54.23-.49.12.17-.36.36-.74,1.1-1.05-.18-.47.68-.23.88-.25.21-.02.81-.12,1.57.09.55.15,1.06.52,1.15.57.2.13.41.3.48.31.07,0,.1,0,.26-.02.2-.02.64-.03.92.2.11.09-.01.28-.14.22-.2-.1-.38.07-.68.21.01.51-.1.58-.33.88-.08.1-.25.24-.22.86,0,.11.01.42.01.46,0,.85-.69,1.24-1.28,1.52-.54.26-.99.84-1.32,1.03-.64.36-1.28-.31-1.52-.6-.06-.07-.04-.12.12-.31.15-.19.81.06,1.05,0,.25-.07.1-.7.27-1.11.18-.4.81-.79.81-.79,0,0,.59.56.88.09.11-.37-.2-.49-.72-.5-.52-.01-1.15.45-1.35.96-.2.51-.21.78-.25.84-.05.06-.17.09-.6,0-.43-.1-.39-.4-.19-.62.19-.23.37-.61.48-1.13.11-.52-.34-.89-.54-1.09-.21-.2-.52-.22-.64-.02-.12.2-.04.33.22.42.27.09.41.19.51.42.11.22-.1.7-.33.93-.23.23-.45.36-.46.55-.01.19.2.35.33.68.13.34-.07.62-.07.62,0,0-.69.19-.97-.11ZM1020.32,117.1s.79.19,1.77.08c-.63,1.51-.65,3.05-.65,3.05l-1.13-.47v-2.65ZM1021.57,121.71c-.53.61-.97,1.35-1.25,1.67v-2.99s.74.33,1.11.46c0,0,.03.38.13.86ZM1017.25,112.02h.41c.52,0,1,.28,1,.81s-.1.65-.15.48c-.06-.19-.15-.33-.27-.39,0,0,.04.29-.02.47-.05.14-.13.24-.36.22-.23-.02-.34-.39-.4-.66,0-.04-.03-.04-.04,0-.05.27-.13.67-.37.67-.31,0-.35-.09-.4-.22-.06-.18-.02-.47-.02-.47-.13.06-.23.23-.28.44-.02.08-.1,0-.1-.53s.48-.81,1-.81ZM1003.13,112.17h.41c.52,0,1,.13,1,.66s-.1.65-.15.48c-.06-.19-.15-.33-.27-.39,0,0,.04.29-.02.47-.05.14-.13.24-.36.22-.23-.02-.34-.39-.4-.66,0-.04-.03-.04-.04,0-.05.27-.13.67-.37.67-.31,0-.35-.09-.4-.22-.06-.18-.02-.47-.02-.47-.13.06-.23.23-.28.44-.02.08-.1,0-.1-.53s.48-.66,1-.66ZM995.13,104.9c-.04-.06-.09-.11-.15-.14.29,0,.72.06.89.51.13.35,0,.58-.11.86-.1.19-.18.39-.3.48-.09,0-.22,0-.34.01-.05,0-.1,0-.15.01.04-.57.6-1.13.16-1.74ZM994.06,105.01c.67,0,.66.32.61.77-.03.29,0,.69.01.9-.22.04-.47.1-.71.18-.02-.3-.06-.74-.2-1.14-.09-.26-.21-.43-.36-.6.24-.03.34-.12.66-.11ZM992.3,105.63c.24-.2.48-.23.69-.37,0,.23-.09.48-.02.74.08.28.37.72.57,1.01-.26.1-.5.21-.72.33-.07-.13-.28-.5-.52-.73-.33-.32-.52-.56,0-.98ZM992.21,107.75c-.15,0-.34-.1-.54-.18-.26-.15-.51-.26-.62-.61-.15-.46.14-.78.37-.95-.02.07-.03.13-.02.21.04.78.82.81,1.19,1.27-.03.02-.06.04-.09.06-.1.07-.21.14-.28.2ZM991.27,112.85c-.11-1.15.33-1.91.86-2.6.59-.77.17-.91-.06-.87,2.1-1.68,3.86-1.69,4.42-1.66.56.04,1,.28,1.26.76.26.48.37.37,1.2,1.24.83.86,1.73,2.18,1.77,4.09h-.27v8.88c-.42-.75-.72-1.28-1.85-2.04-1.79-1.2-4.56-1.14-4.89-3.71-.33,1.19-.31,1.95-.27,2.31,0,.07-.08.11-.13.06-.29-.34-.89-1.16-1.22-2.46-.19.65-.66,1.32-.66,1.32,0,0-.42-1.37,0-2.49.41-1.12-.04-1.68-.15-2.83ZM994.36,133.39c.57.96,2.6,1.95,3.79,2.94.57.47-.67.62-.93.58-.35-.05-.94-.28-1.17-.53-.37-.39-.94-.88-1.54-1.49-.72-.73-1.58-.86-1.52-1.84.02-.43.47-3.32-2.22-4.43,1.06-.57,1.68-.87,2.2-.81,1.58.17,1.12,2.57,1.04,3.09-.1.69-.14,1.64.36,2.49ZM1027.65,133.03c.06.97-.81,1.1-1.52,1.84-.95.98-1.83,2-1.94,2.03-.14.02-.57.1-.99.16-.4.06-.63-.43-.34-.7,1.11-1.04,3.18-1.98,3.7-2.99.46-.89.47-1.8.36-2.49-.09-.54-.42-3.33,1.44-3.34.53.2.8.39,1.63.86-2.69,1.1-2.37,4.2-2.34,4.63ZM1036.95,131.19c.25.23.39.98.18.87-.11-.06-.23.06-.18.17.18.4.16,1.22.26,2.09,0,.21.03,1.61-.4,2.29-.07.11-1.15,1.17-1.86,1.26-.65.15-.96-.29-1.19-.29-.03,0-.06,0-.09,0-.02.08-.65.1-.7-.28-.05-.38.21-.44.9-.67.69-.23,2.18-.34,2.33-1.51.15-1.18.17-2.39-.59-3.04-1.15-.99-3.17-1.11-3.88-3.88-.45-2.01-1.25-2.97-1.79-3.41-.12-.09-.27.05-.19.17.33.52.78,1.39.91,2.49-1.9-2.25-4.02-2.66-5.39-3.93,1.76-1.09,2.49-2,2.51-3.48,0-.12-.17-.15-.21-.03-.7,1.95-2.57,2.43-3.85,3.4-.63.48-1.33.94-1.82,1.62-.32.44-.58.93-.74,1.49-.31,1.02-.33,2.25-.82,2.88-.14.17-.31.3-.53.36-.08.02-.17.04-.27.04,0,0,0,0-.01,0-.06,0-.12,0-.18,0-.02,0-.04,0-.06,0v.73c.09,0,.44-.01.53-.03v5.57c0,.66-.19,1.17-.53,1.52-.4.42-.99.63-1.7.63h-14.36c-.75,0-1.36-.23-1.76-.69-.3-.35-.47-.84-.47-1.46v-5.55c.09.01.38.02.47.03v3.16h1.62s.01-.03.02-.04c.01-.02.02-.05.04-.07.02-.03.04-.06.06-.08.02-.03.04-.05.06-.07h0s.05-.05.07-.08c.03-.03.06-.06.1-.08.04-.03.08-.05.12-.08,0,0,0,0,0,0,.06-.03.12-.06.19-.08.09-.03.19-.04.29-.04s.2.01.29.04c.06.02.12.05.18.08,0,0,0,0,0,0,.04.02.08.05.12.08.03.02.07.05.1.08.03.02.05.05.08.08h0s.04.05.06.07c.02.03.04.05.05.08.01.02.03.05.04.07,0,0,0,0,0,0h0s.16-1.15.16-1.15h3.31l.16,1.19h3.95l.28-1.27h-.1v-.37h3.58v.37h-.14l.25,1.27h2.9v-3.9c-.22,0-.53-.04-.63-.26-.08-.16,0-.34.04-.5.06-.18.13-.37.18-.55.04-.13.32-1.6.34-1.65h-12.33s0,.03,0,.03v.39l.74.47h-.25v.46h-1.2v-.46h-.27l.75-.47v-.42s-4.93,0-4.93,0h-.05s-.09,0-.09,0c.01.02.2,1.14.37,1.66.06.18.12.37.18.55.05.15.12.34.04.5-.12.24-.47.25-.69.26,0,0,0,0,0,0-.06,0-.12,0-.18,0,0,0,0,0-.01,0-.1,0-.19-.02-.28-.04-.22-.06-.4-.19-.53-.36-.48-.63-.51-1.86-.82-2.87-.15-.5-.38-.96-.66-1.36-.5-.73-1.02-1.28-2.07-1.72-1.37-.57-1.78-1.63-1.9-2.24-.03-.13-.2-.14-.25-.02-.29.8-.64,2.44.89,3.43-1.92,1.3-3.91,1.02-5.47,2.62.16-1.13.63-1.96.95-2.41.07-.1-.05-.22-.15-.16-.59.37-1.6,1.31-2.11,3.55-.4,1.54-.99,2.19-1.78,2.65-.64.36-2.22,1.06-2.43,1.68-.3.88-.26,2.05-.17,2.88.03.25.13.49.39.7.6.5,1.71.87,2.33,1.06.2.06.27.4-.03.48-.57.15-2.13.07-3.17-.97-.28-.28-.26-1.13-.27-1.77,0-.23,0-2.18.1-2.67.02-.12-.06-.13-.18-.17-.28-.09.09-.5.28-.67.13-.11,1.82-1.69,1.97-2.2.13-.45-.53-2.44-.18-3.86.3-1.21,4.02-2.04,5.01-5.09,1.07-.58,1.18-1.54,1.33-2.08.45,1.39,1.42,1.89,1.82,2.05.08.03.16-.04.14-.12-.08-.3-.21-.92-.13-1.32,1.19,1.29,2.23,1.33,3.12,1.79,1.11.56,2.29,2.1,3.07,3.26.14.2.26.39.37.57l.16.25c.11.17.37.09.37-.11v-10.26h18.83s0,7.67,0,10.14c0,.27.33.4.52.2.11-.12.22-.24.3-.32.08-.09.16-.19.24-.28.31-.37,1.19-1.39,1.38-1.62,1.88-2.21,1.41-3.17,2.32-4.2.09-.1-.04-.24-.15-.16-.31.23-.8.79-1.3,1.73-.2.39-.57.98-.79.92-.14-.04-.1-.68-.1-1.25,0-.51.13-.96.23-1.37.41-1.59,1.12-2.23,1.26-2.71.83.05.99-.42.93-.57-.13.09-.39.19-.57.2-.66.05-1.3-.18-1.39-1,.43.19.9-.1.9-.1,1.22,1.67,2.2.71,2.68.27.12-.11.69-.6.91-.72.2-.11.22.02.04.29-.3.45-1.06,1.43.04,2.67.37.48.63.74,1.01,1.12.97.98,1.28,2.45,1.94,3.33.5.67,1.54,1.73,2.3,2.15.68.38,2.85,1.52,3.01,2.88.09.78-.07,1.11-.15,1.72-.07.6-.41,1.34-.28,1.8.15.51,1.36,1.33,1.87,1.79ZM1005.86,129.05v-.58l1.75-.02v.58h-.09s.1,2.35.1,2.35h.24l.08.77h-2.43s.08-.77.08-.77h.22l.11-2.32h-.08ZM1012.96,131.68v-.71h3.05v.71h-3.05Z"/>
        <path class="cls-1" d="M1017.28,108.42c-2.12-.9-4.44-1.4-6.88-1.4s-4.77.5-6.89,1.4l.68,1.61c1.91-.81,4.01-1.27,6.21-1.27s4.29.45,6.2,1.26l.68-1.61Z"/>
        <path class="cls-1" d="M1004.3,110.48l.63,1.5c1.68-.72,3.53-1.11,5.47-1.11s3.78.4,5.46,1.11l.63-1.5c-1.87-.8-3.94-1.24-6.1-1.24s-4.23.44-6.1,1.24Z"/>
        <path class="cls-1" d="M1017.38,107.98l.32-.76c-2.24-.96-4.71-1.49-7.3-1.49s-5.06.53-7.31,1.49l.32.76s0,0,0,0c-.02-.29.15-.56.43-.67.28-.11.59-.01.77.21.3-.1.6-.2.91-.28.02-.29.21-.54.51-.62.29-.07.59.06.74.31.29-.06.57-.11.86-.16.05-.29.28-.53.58-.57.31-.04.59.14.71.42.27-.02.55-.04.83-.05.07-.29.34-.51.65-.51s.58.22.65.51c.28,0,.55.03.83.05.11-.28.4-.46.71-.42.31.04.53.28.58.57.29.05.58.1.87.16.15-.25.44-.38.74-.31.29.07.49.33.51.62.31.09.61.18.91.28.18-.23.49-.32.77-.21.28.11.44.38.43.67,0,0,0,0,0,0Z"/>
        <path class="cls-1" d="M1014,104.56c.64.11,1.27.26,1.9.44l.67-2.28c-.71-.2-1.43-.37-2.16-.5l-.4,2.35Z"/>
        <path class="cls-1" d="M1010.4,104.24c.32,0,.64,0,.96.02l.14-2.39c-.36-.02-.73-.03-1.1-.03s-.75.01-1.12.03l.14,2.39c.33-.02.65-.02.98-.02Z"/>
        <path class="cls-1" d="M1006.79,104.56l-.4-2.35c-.73.13-1.45.3-2.16.5l.67,2.28c.62-.18,1.26-.32,1.89-.44Z"/>
        <path class="cls-1" d="M1006.62,101.51l.52,2.99c.64-.1,1.28-.18,1.93-.22l-.17-3.03c-.77.05-1.53.14-2.27.26Z"/>
        <path class="cls-1" d="M1011.89,101.25l-.17,3.03c.65.04,1.29.11,1.93.22l.52-2.99c-.75-.12-1.51-.21-2.28-.26Z"/>
        <path class="cls-1" d="M1019.27,102.97s-.02,0-.03-.01c-.7-.29-1.42-.55-2.16-.77l-.85,2.91c.68.21,1.35.45,2.01.72l1.18-2.79s-.1-.04-.14-.06Z"/>
        <path class="cls-1" d="M1004.55,105.1l-.85-2.91c-.73.22-1.45.48-2.16.77-.03.01-.07.03-.1.04-.02,0-.05.02-.07.03l1.18,2.79c.66-.28,1.33-.52,2-.72Z"/>
      </g>
    </g>
  </g>
  <g>
    <path class="cls-1" d="M858.09,145.16c-1.25,0-2.26-.27-3.02-.83-.76-.55-1.21-1.33-1.36-2.33-.02-.1,0-.18.05-.24.05-.06.13-.09.23-.09h1.16c.16,0,.27.09.33.28.24,1.09,1.11,1.64,2.6,1.64.79,0,1.41-.16,1.85-.48.44-.32.66-.75.66-1.3,0-.9-.62-1.47-1.86-1.68l-1.72-.31c-2.16-.4-3.24-1.46-3.24-3.17,0-1,.36-1.8,1.08-2.39s1.74-.89,3.07-.89c2.57,0,3.99,1.09,4.25,3.27.02.22-.08.33-.29.33h-1.13c-.19,0-.29-.1-.33-.29-.08-.61-.32-1.05-.74-1.32-.41-.27-1.01-.41-1.78-.41-1.58,0-2.37.56-2.37,1.67,0,.47.16.84.47,1.1.32.27.88.48,1.68.63l1.72.31c1.96.35,2.94,1.38,2.94,3.09,0,1.07-.38,1.91-1.14,2.52-.76.61-1.8.92-3.13.92Z"/>
    <path class="cls-1" d="M867.93,137.14c1.15,0,2.09.36,2.82,1.09s1.09,1.69,1.09,2.88v.18c0,.25-.13.38-.38.38h-5.87c.08.71.32,1.24.74,1.6.42.36.97.54,1.67.54.5,0,.93-.08,1.28-.25s.6-.4.74-.68c.09-.16.21-.25.36-.25h.95c.11,0,.19.02.25.07.05.04.07.1.05.18-.22.68-.65,1.23-1.28,1.65s-1.42.64-2.36.64c-1.22,0-2.2-.37-2.93-1.11-.74-.74-1.1-1.71-1.1-2.89s.37-2.16,1.1-2.9,1.7-1.12,2.89-1.12ZM867.93,138.48c-.63,0-1.15.17-1.55.51s-.66.84-.77,1.48h4.56c-.2-1.33-.94-1.99-2.24-1.99Z"/>
    <path class="cls-1" d="M877.35,145.16c-1.19,0-2.16-.38-2.9-1.15s-1.12-1.72-1.12-2.87.37-2.1,1.12-2.86,1.71-1.14,2.9-1.14c.97,0,1.8.25,2.48.76s1.1,1.17,1.27,2c.03.22-.07.33-.29.33h-1.06c-.17,0-.29-.09-.34-.26-.14-.44-.39-.77-.74-1.01s-.78-.35-1.28-.35c-.72,0-1.29.24-1.72.71-.43.47-.65,1.08-.65,1.82s.21,1.36.65,1.83c.43.47,1.01.7,1.72.7.49,0,.91-.11,1.27-.34.35-.23.6-.56.74-.98.05-.18.17-.28.34-.28h1.06c.1,0,.18.03.24.08.06.06.08.13.06.23-.15.83-.57,1.5-1.25,2.01-.68.51-1.51.77-2.48.77Z"/>
    <path class="cls-1" d="M887.6,137.2c.17.04.26.16.26.36v.9c0,.21-.11.3-.33.28-.09-.01-.23-.02-.43-.02-1.59,0-2.39.99-2.39,2.98v2.98c0,.21-.1.31-.31.31h-1.01c-.21,0-.31-.1-.31-.31v-7.05c0-.21.1-.31.31-.31h.98c.21,0,.31.1.31.31v1.16h.03c.21-.52.53-.92.96-1.2.43-.28.92-.42,1.48-.42.1,0,.24.01.44.03Z"/>
    <path class="cls-1" d="M892.73,137.14c1.15,0,2.09.36,2.82,1.09s1.09,1.69,1.09,2.88v.18c0,.25-.13.38-.38.38h-5.87c.08.71.32,1.24.74,1.6.42.36.97.54,1.67.54.5,0,.93-.08,1.28-.25s.6-.4.74-.68c.09-.16.21-.25.36-.25h.95c.11,0,.19.02.25.07.05.04.07.1.05.18-.22.68-.65,1.23-1.28,1.65s-1.42.64-2.36.64c-1.22,0-2.2-.37-2.93-1.11-.74-.74-1.1-1.71-1.1-2.89s.37-2.16,1.1-2.9,1.7-1.12,2.89-1.12ZM892.73,138.48c-.63,0-1.15.17-1.55.51s-.66.84-.77,1.48h4.56c-.2-1.33-.94-1.99-2.24-1.99Z"/>
    <path class="cls-1" d="M903.55,143.5c.24-.11.36-.04.36.21v.82c0,.16-.08.28-.23.36-.45.18-.96.28-1.55.28-1.9,0-2.84-.97-2.84-2.91v-3.55h-1.42c-.21,0-.31-.1-.31-.31v-.77c0-.21.1-.31.31-.31h1.42v-1.83c0-.21.1-.31.31-.31h1.01c.21,0,.31.1.31.31v1.83h2.6c.21,0,.31.1.31.31v.77c0,.21-.1.31-.31.31h-2.6v3.42c0,.57.12.97.36,1.2.24.23.63.35,1.16.35.41,0,.78-.06,1.11-.18Z"/>
    <path class="cls-1" d="M912.85,137.32c.21,0,.31.1.31.31v7.05c0,.21-.1.31-.31.31h-1c-.21,0-.31-.1-.31-.31v-.85h-.03c-.23.41-.58.74-1.05.98-.47.24-.99.36-1.57.36-1.07,0-1.97-.38-2.7-1.15-.73-.77-1.1-1.72-1.1-2.87s.37-2.08,1.1-2.85c.73-.77,1.63-1.15,2.7-1.15.58,0,1.1.12,1.57.35.47.23.82.56,1.05.99h.03v-.85c0-.21.1-.31.31-.31h1ZM907.43,139.33c-.44.48-.66,1.08-.66,1.81s.22,1.34.66,1.81c.44.48,1.02.72,1.74.72s1.3-.24,1.74-.72c.44-.48.66-1.08.66-1.81s-.22-1.34-.66-1.81c-.44-.48-1.02-.72-1.74-.72s-1.3.24-1.74.72Z"/>
    <path class="cls-1" d="M920.09,137.2c.17.04.26.16.26.36v.9c0,.21-.11.3-.33.28-.09-.01-.23-.02-.43-.02-1.59,0-2.39.99-2.39,2.98v2.98c0,.21-.1.31-.31.31h-1.01c-.21,0-.31-.1-.31-.31v-7.05c0-.21.1-.31.31-.31h.98c.21,0,.31.1.31.31v1.16h.03c.21-.52.53-.92.96-1.2.43-.28.92-.42,1.48-.42.1,0,.24.01.44.03Z"/>
    <path class="cls-1" d="M923.58,135.64c-.21.21-.48.32-.81.32s-.6-.11-.81-.32c-.21-.21-.32-.48-.32-.79s.11-.58.32-.79c.21-.21.48-.32.81-.32s.6.11.81.32c.21.21.32.48.32.79s-.11.58-.32.79ZM922.27,144.98c-.21,0-.31-.1-.31-.31v-7.05c0-.21.1-.31.31-.31h1.01c.21,0,.31.1.31.31v7.05c0,.21-.1.31-.31.31h-1.01Z"/>
    <path class="cls-1" d="M933.29,137.32c.21,0,.31.1.31.31v7.05c0,.21-.1.31-.31.31h-1c-.21,0-.31-.1-.31-.31v-.85h-.03c-.23.41-.58.74-1.05.98-.47.24-.99.36-1.57.36-1.07,0-1.97-.38-2.7-1.15-.73-.77-1.1-1.72-1.1-2.87s.37-2.08,1.1-2.85c.73-.77,1.63-1.15,2.7-1.15.58,0,1.1.12,1.57.35.47.23.82.56,1.05.99h.03v-.85c0-.21.1-.31.31-.31h1ZM927.87,139.33c-.44.48-.66,1.08-.66,1.81s.22,1.34.66,1.81c.44.48,1.02.72,1.74.72s1.3-.24,1.74-.72c.44-.48.66-1.08.66-1.81s-.22-1.34-.66-1.81c-.44-.48-1.02-.72-1.74-.72s-1.3.24-1.74.72Z"/>
    <path class="cls-1" d="M947.33,133.54c.21,0,.31.1.31.31v10.82c0,.21-.1.31-.31.31h-.98c-.21,0-.31-.1-.31-.31v-.85h-.05c-.23.41-.58.74-1.05.98-.47.24-.99.36-1.57.36-1.07,0-1.97-.38-2.7-1.15-.73-.77-1.1-1.72-1.1-2.87s.37-2.08,1.1-2.85c.73-.77,1.62-1.15,2.68-1.15.57,0,1.08.12,1.55.36.47.24.81.57,1.03.98h.07v-4.63c0-.21.1-.31.31-.31h1.01ZM941.91,139.33c-.44.48-.66,1.08-.66,1.81s.22,1.34.66,1.81c.44.48,1.02.72,1.74.72s1.3-.24,1.74-.72c.44-.48.66-1.08.66-1.81s-.22-1.34-.66-1.81c-.44-.48-1.02-.72-1.74-.72s-1.3.24-1.74.72Z"/>
    <path class="cls-1" d="M953.59,137.14c1.15,0,2.09.36,2.82,1.09s1.09,1.69,1.09,2.88v.18c0,.25-.13.38-.38.38h-5.87c.08.71.32,1.24.74,1.6.42.36.97.54,1.67.54.5,0,.93-.08,1.28-.25s.6-.4.74-.68c.09-.16.21-.25.36-.25h.95c.11,0,.19.02.25.07.05.04.07.1.05.18-.22.68-.65,1.23-1.28,1.65s-1.42.64-2.36.64c-1.22,0-2.2-.37-2.93-1.11-.74-.74-1.1-1.71-1.1-2.89s.37-2.16,1.1-2.9,1.7-1.12,2.89-1.12ZM953.59,138.48c-.63,0-1.15.17-1.55.51s-.66.84-.77,1.48h4.56c-.2-1.33-.94-1.99-2.24-1.99Z"/>
    <path class="cls-1" d="M853.63,164.29c.07.21,0,.31-.21.31h-2.22c-.15,0-.25-.07-.29-.21l-.65-1.78h-4.89l-.65,1.78c-.04.14-.15.21-.31.21h-2.19c-.23,0-.3-.1-.21-.31l4.27-10.92c.04-.14.15-.21.31-.21h2.45c.17,0,.28.07.33.21l4.28,10.92ZM846.22,160.27h3.15l-1.55-4.22h-.05l-1.55,4.22Z"/>
    <path class="cls-1" d="M862.57,153.16c.18,0,.28.09.28.26v10.92c0,.17-.09.26-.28.26h-1.91c-.17,0-.26-.09-.26-.26v-.7h-.05c-.46.78-1.24,1.18-2.34,1.18s-1.97-.39-2.67-1.18c-.7-.78-1.05-1.78-1.05-2.98s.35-2.21,1.05-2.99c.7-.78,1.58-1.18,2.65-1.18s1.86.39,2.31,1.18h.08v-4.25c0-.17.09-.26.26-.26h1.94ZM856.81,160.66c0,.56.17,1.01.5,1.36.33.35.77.53,1.32.53s.98-.18,1.32-.53c.33-.35.5-.81.5-1.36s-.17-1.02-.5-1.37-.77-.52-1.32-.52-.98.17-1.32.52c-.33.35-.5.81-.5,1.37Z"/>
    <path class="cls-1" d="M874.48,156.49c.88,0,1.58.29,2.08.87s.75,1.38.75,2.42v4.56c0,.17-.09.26-.26.26h-1.95c-.18,0-.28-.09-.28-.26v-3.92c0-1.09-.4-1.64-1.21-1.64-.41,0-.74.14-.98.42-.24.28-.36.69-.36,1.23v3.91c0,.17-.09.26-.28.26h-1.95c-.17,0-.26-.09-.26-.26v-3.92c0-1.09-.41-1.64-1.23-1.64-.41,0-.74.14-.98.42-.24.28-.36.69-.36,1.23v3.91c0,.17-.09.26-.28.26h-1.95c-.17,0-.26-.09-.26-.26v-7.36c0-.19.09-.28.26-.28h1.86c.18,0,.28.09.28.28v.78h.05c.42-.85,1.18-1.28,2.26-1.28s1.89.46,2.35,1.39h.07c.24-.43.59-.76,1.05-1.01s.98-.38,1.56-.38Z"/>
    <path class="cls-1" d="M880.37,155.66c-.46,0-.83-.14-1.12-.42s-.43-.64-.43-1.09.15-.8.43-1.08.66-.43,1.12-.43.81.14,1.1.43.43.64.43,1.08-.15.8-.43,1.08-.66.43-1.1.43ZM879.39,164.6c-.17,0-.26-.09-.26-.26v-7.36c0-.19.09-.28.26-.28h1.95c.18,0,.28.09.28.28v7.36c0,.17-.09.26-.28.26h-1.95Z"/>
    <path class="cls-1" d="M888.38,156.49c.94,0,1.67.29,2.2.87.53.58.79,1.39.79,2.43v4.54c0,.17-.09.26-.26.26h-1.96c-.17,0-.26-.09-.26-.26v-3.91c0-1.1-.46-1.65-1.39-1.65-.48,0-.85.14-1.12.43-.27.28-.4.7-.4,1.24v3.89c0,.17-.09.26-.28.26h-1.95c-.17,0-.26-.09-.26-.26v-7.36c0-.19.09-.28.26-.28h1.9c.18,0,.28.09.28.28v.77h.03c.44-.84,1.24-1.26,2.42-1.26Z"/>
    <path class="cls-1" d="M894.43,155.66c-.46,0-.83-.14-1.12-.42s-.43-.64-.43-1.09.15-.8.43-1.08.66-.43,1.12-.43.81.14,1.1.43.43.64.43,1.08-.15.8-.43,1.08-.66.43-1.1.43ZM893.45,164.6c-.17,0-.26-.09-.26-.26v-7.36c0-.19.09-.28.26-.28h1.95c.18,0,.28.09.28.28v7.36c0,.17-.09.26-.28.26h-1.95Z"/>
    <path class="cls-1" d="M900.82,164.81c-1.09,0-1.94-.21-2.57-.62-.62-.41-.99-.99-1.11-1.73-.02-.08,0-.14.04-.2s.12-.08.2-.08h1.91c.13,0,.23.08.29.23.15.4.55.6,1.21.6.8,0,1.19-.25,1.19-.74,0-.22-.09-.38-.26-.49s-.48-.19-.93-.25l-1.08-.11c-.85-.1-1.49-.35-1.93-.77-.44-.41-.65-.94-.65-1.59,0-.78.31-1.41.93-1.88.62-.47,1.52-.7,2.7-.7,2.15,0,3.34.81,3.58,2.42.03.18-.05.28-.25.28h-1.88c-.15,0-.25-.08-.29-.24-.13-.43-.52-.64-1.18-.64-.77,0-1.16.23-1.16.7,0,.17.09.31.27.42.18.1.5.18.96.24l1.08.13c1.7.18,2.55.98,2.55,2.37,0,.83-.32,1.48-.96,1.95-.64.47-1.53.7-2.67.7Z"/>
    <path class="cls-1" d="M911.54,162.38c.21-.08.31-.01.31.2v1.65c0,.14-.06.24-.18.29-.46.2-1.01.29-1.67.29-1.1,0-1.92-.26-2.47-.79-.55-.53-.82-1.35-.82-2.46v-2.7h-1.28c-.18,0-.28-.09-.28-.28v-1.6c0-.19.09-.28.28-.28h1.28v-1.9c0-.18.09-.28.28-.28h1.94c.17,0,.26.09.26.28v1.9h2.32c.17,0,.26.09.26.28v1.6c0,.19-.09.28-.26.28h-2.32v2.35c0,.49.1.84.31,1.04.21.2.56.3,1.05.3.37,0,.7-.06.98-.18Z"/>
    <path class="cls-1" d="M918.48,156.59c.14.03.21.14.21.31v1.85c0,.19-.09.27-.28.24-.12-.02-.3-.03-.54-.03-1.42,0-2.13.83-2.13,2.5v2.88c0,.17-.09.26-.28.26h-1.95c-.17,0-.26-.09-.26-.26v-7.36c0-.19.09-.28.26-.28h1.88c.19,0,.28.09.28.28v1.06h.03c.21-.48.52-.85.93-1.1.42-.26.88-.38,1.39-.38.1,0,.24.01.44.03Z"/>
    <path class="cls-1" d="M927.7,156.71c.17,0,.26.09.26.28v7.36c0,.17-.09.26-.26.26h-1.9c-.17,0-.26-.09-.26-.26v-.7h-.03c-.46.78-1.24,1.18-2.34,1.18s-1.98-.39-2.68-1.18c-.7-.78-1.05-1.78-1.05-2.98s.35-2.21,1.05-2.99c.7-.78,1.59-1.18,2.68-1.18s1.87.39,2.32,1.18h.05v-.69c0-.19.09-.28.26-.28h1.9ZM922.46,159.3c-.33.35-.49.81-.49,1.36s.16,1.01.49,1.36c.33.35.76.53,1.31.53s.98-.18,1.32-.53c.33-.35.5-.81.5-1.36s-.17-1.02-.5-1.37c-.33-.35-.77-.52-1.32-.52s-.98.18-1.31.53Z"/>
    <path class="cls-1" d="M937.52,161.33c.21,0,.29.09.26.26-.11.8-.42,1.47-.95,2.01-.52.54-1.19.91-1.99,1.09l-.78,2.75c-.03.15-.13.23-.28.23h-1.83c-.22,0-.28-.1-.2-.29l.98-2.66c-1-.21-1.79-.68-2.38-1.41-.58-.74-.87-1.62-.87-2.64,0-1.2.39-2.19,1.17-2.98.78-.79,1.81-1.19,3.08-1.19,1.08,0,1.99.29,2.73.88.74.59,1.18,1.36,1.32,2.32.03.2-.05.29-.24.29h-2.01c-.14,0-.24-.08-.3-.25-.2-.65-.69-.98-1.49-.98-.53,0-.96.17-1.27.52-.31.34-.47.8-.47,1.38s.15,1.04.47,1.38c.31.34.73.51,1.27.51.77,0,1.26-.33,1.47-1,.05-.15.16-.23.31-.23h1.99Z"/>
    <path class="cls-1" d="M947.22,156.71c.17,0,.26.09.26.28v7.36c0,.17-.09.26-.26.26h-1.9c-.17,0-.26-.09-.26-.26v-.7h-.03c-.46.78-1.24,1.18-2.34,1.18s-1.98-.39-2.68-1.18c-.7-.78-1.05-1.78-1.05-2.98s.35-2.21,1.05-2.99c.7-.78,1.59-1.18,2.68-1.18s1.87.39,2.32,1.18h.05v-.69c0-.19.09-.28.26-.28h1.9ZM940.74,155.61c-.18,0-.28-.09-.28-.28.07-1.57.64-2.35,1.72-2.35.38,0,.86.17,1.44.52.35.21.61.31.77.31.24,0,.38-.18.42-.54.01-.17.1-.26.28-.26h1.18c.2,0,.28.14.26.43-.09,1.47-.65,2.21-1.7,2.21-.4,0-.88-.17-1.44-.51-.37-.22-.63-.33-.77-.33-.24,0-.38.18-.43.54-.02.17-.11.26-.28.26h-1.18ZM941.98,159.3c-.33.35-.49.81-.49,1.36s.16,1.01.49,1.36c.33.35.76.53,1.31.53s.98-.18,1.32-.53c.33-.35.5-.81.5-1.36s-.17-1.02-.5-1.37c-.33-.35-.77-.52-1.32-.52s-.98.18-1.31.53Z"/>
    <path class="cls-1" d="M956.44,163.64c-.81.78-1.85,1.18-3.11,1.18s-2.3-.39-3.11-1.18c-.81-.78-1.22-1.78-1.22-2.98s.41-2.19,1.22-2.98c.81-.79,1.85-1.19,3.11-1.19s2.3.4,3.11,1.19,1.22,1.78,1.22,2.98-.41,2.19-1.22,2.98ZM952.02,162.03c.33.35.76.53,1.31.53s.98-.18,1.31-.53c.33-.35.49-.81.49-1.36s-.16-1.02-.49-1.37c-.33-.35-.76-.52-1.31-.52s-.98.18-1.31.53c-.33.35-.49.81-.49,1.36s.16,1.01.49,1.36Z"/>
  </g>
  <g>
    <polygon class="cls-1" points="628.29 147.42 632.08 147.42 632.08 159.79 633.89 159.79 633.89 147.42 637.66 147.42 637.66 145.95 628.29 145.95 628.29 147.42"/>
    <path class="cls-1" d="M703.58,152.4c.55-.73.82-1.57.82-2.52,0-.78-.18-1.48-.54-2.08-.36-.61-.9-1.09-1.62-1.45-.72-.36-1.61-.54-2.65-.54h-4.47v6.73h-53.47v1.5h53.47v5.61h1.81v-5.66h2.18l3.3,5.66h2.16l-3.47-5.8c1.1-.24,1.92-.72,2.47-1.45ZM696.94,152.54v-5.24h2.66c.99,0,1.73.23,2.21.68.48.45.72,1.09.72,1.91s-.25,1.45-.73,1.94c-.49.48-1.22.72-2.2.72h-2.66Z"/>
    <path class="cls-1" d="M711.34,145.89l-5,13.76h1.91l1.11-3.08h6.04l1.11,3.08h1.91l-4.98-13.76h-2.08ZM709.87,155.11l2.5-6.99,2.5,6.99h-5Z"/>
    <path class="cls-1" d="M725.73,156.04c0,.62-.17,1.14-.5,1.54-.33.4-.83.61-1.51.61s-1.18-.21-1.52-.64c-.34-.42-.51-.97-.53-1.65h-1.81c0,1.2.35,2.15,1.05,2.85.7.69,1.63,1.04,2.8,1.04s2.08-.34,2.78-1.02c.7-.68,1.05-1.59,1.05-2.73v-10.23h-1.83v10.23Z"/>
    <polygon class="cls-1" points="731.11 159.65 738.56 159.65 738.56 158.16 732.92 158.16 732.92 153.4 737.96 153.4 737.96 151.91 732.92 151.91 732.92 147.28 738.56 147.28 738.56 145.79 731.11 145.79 731.11 159.65"/>
    <polygon class="cls-1" points="740.44 147.28 744.24 147.28 744.24 159.65 746.04 159.65 746.04 147.28 749.82 147.28 749.82 145.81 740.44 145.81 740.44 147.28"/>
    <polygon class="cls-1" points="760.3 141.25 756.07 143.73 756.07 145.08 760.3 142.81 760.3 141.25"/>
    <path class="cls-1" d="M761.85,146.56c-1.06-.6-2.24-.9-3.53-.9s-2.46.3-3.51.9c-1.06.6-1.9,1.44-2.51,2.52-.62,1.08-.92,2.29-.92,3.64s.31,2.56.92,3.64c.62,1.08,1.45,1.92,2.51,2.52,1.06.6,2.23.9,3.51.9s2.48-.3,3.53-.9c1.06-.6,1.89-1.44,2.5-2.51.61-1.07.91-2.29.91-3.65s-.3-2.58-.91-3.65c-.61-1.07-1.44-1.91-2.5-2.51ZM762.75,155.62c-.44.83-1.05,1.48-1.83,1.93-.77.45-1.64.68-2.61.68s-1.84-.22-2.61-.68c-.77-.45-1.38-1.09-1.83-1.93-.44-.83-.67-1.8-.67-2.9s.22-2.08.67-2.91c.44-.83,1.05-1.47,1.82-1.92.77-.45,1.64-.68,2.62-.68s1.85.23,2.62.68c.77.45,1.37,1.09,1.82,1.92.44.83.67,1.8.67,2.91s-.22,2.06-.67,2.9Z"/>
    <path class="cls-1" d="M776.09,152.4c.55-.73.82-1.57.82-2.52,0-.78-.18-1.48-.54-2.08-.36-.61-.9-1.09-1.62-1.45-.72-.36-1.61-.54-2.65-.54h-4.47v13.84h1.81v-5.66h2.18l3.3,5.66h2.16l-3.47-5.8c1.1-.24,1.92-.72,2.47-1.45ZM769.45,152.54v-5.24h2.66c.99,0,1.73.23,2.21.68.48.45.72,1.09.72,1.91s-.25,1.45-.73,1.94c-.49.48-1.22.72-2.2.72h-2.66Z"/>
    <rect class="cls-1" x="779.72" y="145.81" width="1.81" height="13.84"/>
    <path class="cls-1" d="M788.73,145.89l-5,13.76h1.91l1.11-3.08h6.04l1.11,3.08h1.91l-4.98-13.76h-2.08ZM787.26,155.11l2.5-6.99,2.5,6.99h-5Z"/>
    <path class="cls-1" d="M806.38,153.8c-.4-.51-.87-.89-1.43-1.13-.56-.24-1.29-.49-2.2-.74-.75-.21-1.34-.4-1.76-.57-.42-.17-.77-.41-1.05-.72-.28-.32-.43-.73-.43-1.23,0-.7.24-1.25.71-1.64.48-.39,1.09-.59,1.85-.59.81,0,1.46.2,1.95.61.49.4.77.87.83,1.4h1.99c-.11-1.07-.57-1.93-1.4-2.58-.83-.65-1.89-.97-3.19-.97-.9,0-1.7.16-2.39.48-.69.32-1.23.77-1.62,1.35-.38.58-.58,1.25-.58,2.01,0,.86.2,1.55.59,2.06.39.51.86.88,1.41,1.12.55.24,1.28.48,2.19.71.74.2,1.33.38,1.77.56.44.17.8.42,1.09.75.29.33.44.76.44,1.29,0,.68-.25,1.23-.74,1.66-.5.43-1.17.65-2.04.65s-1.59-.22-2.06-.67c-.47-.44-.74-.99-.8-1.64h-1.93c.01.75.22,1.42.64,2,.41.58.98,1.03,1.7,1.35.72.32,1.54.49,2.45.49s1.78-.19,2.48-.56c.7-.37,1.23-.85,1.59-1.45.36-.6.54-1.23.54-1.91,0-.87-.2-1.57-.6-2.07Z"/>
  </g>
</svg>